<mxfile host="app.diagrams.net" agent="Mozilla/5.0 (Windows NT 10.0; Win64; x64) AppleWebKit/537.36 (KHTML, like Gecko) Chrome/138.0.0.0 Safari/537.36 Edg/138.0.0.0" version="27.1.4">
  <diagram name="Page-1" id="_-C3W1XT-BSVKzTiRJ36">
    <mxGraphModel dx="1753" dy="1027" grid="1" gridSize="10" guides="1" tooltips="1" connect="1" arrows="1" fold="1" page="1" pageScale="1" pageWidth="850" pageHeight="1100" math="0" shadow="0">
      <root>
        <mxCell id="0" />
        <mxCell id="1" parent="0" />
        <mxCell id="yG7qFysH4MExfcr9FbMT-40" value="" style="rounded=0;whiteSpace=wrap;html=1;" vertex="1" parent="1">
          <mxGeometry x="340" y="512.5" width="380" height="227.5" as="geometry" />
        </mxCell>
        <mxCell id="yG7qFysH4MExfcr9FbMT-1" value="" style="rounded=0;whiteSpace=wrap;html=1;" vertex="1" parent="1">
          <mxGeometry x="910" y="200" width="670" height="360" as="geometry" />
        </mxCell>
        <mxCell id="yG7qFysH4MExfcr9FbMT-8" value="" style="rounded=0;whiteSpace=wrap;html=1;" vertex="1" parent="1">
          <mxGeometry x="940" y="365" width="170" height="135" as="geometry" />
        </mxCell>
        <mxCell id="yG7qFysH4MExfcr9FbMT-2" value="Kubernetes Cluster 1" style="text;html=1;align=center;verticalAlign=middle;whiteSpace=wrap;rounded=0;" vertex="1" parent="1">
          <mxGeometry x="1430" y="210" width="140" height="30" as="geometry" />
        </mxCell>
        <mxCell id="yG7qFysH4MExfcr9FbMT-38" style="edgeStyle=orthogonalEdgeStyle;rounded=0;orthogonalLoop=1;jettySize=auto;html=1;exitX=0.5;exitY=1;exitDx=0;exitDy=0;entryX=0.5;entryY=0;entryDx=0;entryDy=0;" edge="1" parent="1" source="yG7qFysH4MExfcr9FbMT-3" target="yG7qFysH4MExfcr9FbMT-10">
          <mxGeometry relative="1" as="geometry" />
        </mxCell>
        <mxCell id="yG7qFysH4MExfcr9FbMT-39" style="edgeStyle=orthogonalEdgeStyle;rounded=0;orthogonalLoop=1;jettySize=auto;html=1;exitX=0.5;exitY=1;exitDx=0;exitDy=0;entryX=0.5;entryY=0;entryDx=0;entryDy=0;" edge="1" parent="1" source="yG7qFysH4MExfcr9FbMT-3" target="yG7qFysH4MExfcr9FbMT-14">
          <mxGeometry relative="1" as="geometry" />
        </mxCell>
        <mxCell id="yG7qFysH4MExfcr9FbMT-3" value="Control Plane" style="rounded=0;whiteSpace=wrap;html=1;" vertex="1" parent="1">
          <mxGeometry x="1105" y="230" width="270" height="60" as="geometry" />
        </mxCell>
        <mxCell id="yG7qFysH4MExfcr9FbMT-17" style="edgeStyle=orthogonalEdgeStyle;rounded=0;orthogonalLoop=1;jettySize=auto;html=1;exitX=0.5;exitY=0;exitDx=0;exitDy=0;entryX=0;entryY=0.5;entryDx=0;entryDy=0;" edge="1" parent="1" source="yG7qFysH4MExfcr9FbMT-4" target="yG7qFysH4MExfcr9FbMT-3">
          <mxGeometry relative="1" as="geometry" />
        </mxCell>
        <mxCell id="yG7qFysH4MExfcr9FbMT-4" value="MCP Server" style="rounded=0;whiteSpace=wrap;html=1;" vertex="1" parent="1">
          <mxGeometry x="970" y="410" width="100" height="52.5" as="geometry" />
        </mxCell>
        <mxCell id="yG7qFysH4MExfcr9FbMT-10" value="" style="rounded=0;whiteSpace=wrap;html=1;" vertex="1" parent="1">
          <mxGeometry x="1150" y="365" width="180" height="135" as="geometry" />
        </mxCell>
        <mxCell id="yG7qFysH4MExfcr9FbMT-11" value="Pod&lt;span style=&quot;color: rgba(0, 0, 0, 0); font-family: monospace; font-size: 0px; text-align: start; text-wrap-mode: nowrap;&quot;&gt;%3CmxGraphModel%3E%3Croot%3E%3CmxCell%20id%3D%220%22%2F%3E%3CmxCell%20id%3D%221%22%20parent%3D%220%22%2F%3E%3CmxCell%20id%3D%222%22%20value%3D%22%22%20style%3D%22rounded%3D0%3BwhiteSpace%3Dwrap%3Bhtml%3D1%3B%22%20vertex%3D%221%22%20parent%3D%221%22%3E%3CmxGeometry%20x%3D%22510%22%20y%3D%22385%22%20width%3D%22180%22%20height%3D%22135%22%20as%3D%22geometry%22%2F%3E%3C%2FmxCell%3E%3C%2Froot%3E%3C%2FmxGraphModel%3E&lt;/span&gt;" style="text;html=1;align=center;verticalAlign=middle;whiteSpace=wrap;rounded=0;" vertex="1" parent="1">
          <mxGeometry x="1270" y="370" width="60" height="30" as="geometry" />
        </mxCell>
        <mxCell id="yG7qFysH4MExfcr9FbMT-12" value="Pod&lt;span style=&quot;color: rgba(0, 0, 0, 0); font-family: monospace; font-size: 0px; text-align: start; text-wrap-mode: nowrap;&quot;&gt;%3CmxGraphModel%3E%3Croot%3E%3CmxCell%20id%3D%220%22%2F%3E%3CmxCell%20id%3D%221%22%20parent%3D%220%22%2F%3E%3CmxCell%20id%3D%222%22%20value%3D%22%22%20style%3D%22rounded%3D0%3BwhiteSpace%3Dwrap%3Bhtml%3D1%3B%22%20vertex%3D%221%22%20parent%3D%221%22%3E%3CmxGeometry%20x%3D%22510%22%20y%3D%22385%22%20width%3D%22180%22%20height%3D%22135%22%20as%3D%22geometry%22%2F%3E%3C%2FmxCell%3E%3C%2Froot%3E%3C%2FmxGraphModel%3E&lt;/span&gt;" style="text;html=1;align=center;verticalAlign=middle;whiteSpace=wrap;rounded=0;" vertex="1" parent="1">
          <mxGeometry x="1060" y="370" width="60" height="30" as="geometry" />
        </mxCell>
        <mxCell id="yG7qFysH4MExfcr9FbMT-13" value="Any Other Application Container" style="rounded=0;whiteSpace=wrap;html=1;" vertex="1" parent="1">
          <mxGeometry x="1175" y="420" width="130" height="52.5" as="geometry" />
        </mxCell>
        <mxCell id="yG7qFysH4MExfcr9FbMT-14" value="" style="rounded=0;whiteSpace=wrap;html=1;" vertex="1" parent="1">
          <mxGeometry x="1350" y="365" width="180" height="135" as="geometry" />
        </mxCell>
        <mxCell id="yG7qFysH4MExfcr9FbMT-15" value="Pod&lt;span style=&quot;color: rgba(0, 0, 0, 0); font-family: monospace; font-size: 0px; text-align: start; text-wrap-mode: nowrap;&quot;&gt;%3CmxGraphModel%3E%3Croot%3E%3CmxCell%20id%3D%220%22%2F%3E%3CmxCell%20id%3D%221%22%20parent%3D%220%22%2F%3E%3CmxCell%20id%3D%222%22%20value%3D%22%22%20style%3D%22rounded%3D0%3BwhiteSpace%3Dwrap%3Bhtml%3D1%3B%22%20vertex%3D%221%22%20parent%3D%221%22%3E%3CmxGeometry%20x%3D%22510%22%20y%3D%22385%22%20width%3D%22180%22%20height%3D%22135%22%20as%3D%22geometry%22%2F%3E%3C%2FmxCell%3E%3C%2Froot%3E%3C%2FmxGraphModel%3E&lt;/span&gt;" style="text;html=1;align=center;verticalAlign=middle;whiteSpace=wrap;rounded=0;" vertex="1" parent="1">
          <mxGeometry x="1470" y="370" width="60" height="30" as="geometry" />
        </mxCell>
        <mxCell id="yG7qFysH4MExfcr9FbMT-16" value="Any Other Application Container" style="rounded=0;whiteSpace=wrap;html=1;" vertex="1" parent="1">
          <mxGeometry x="1375" y="420" width="130" height="52.5" as="geometry" />
        </mxCell>
        <mxCell id="yG7qFysH4MExfcr9FbMT-18" value="Interacts using Kubenetes API" style="text;html=1;align=center;verticalAlign=middle;whiteSpace=wrap;rounded=0;" vertex="1" parent="1">
          <mxGeometry x="920" y="290" width="90" height="30" as="geometry" />
        </mxCell>
        <mxCell id="yG7qFysH4MExfcr9FbMT-19" value="" style="rounded=0;whiteSpace=wrap;html=1;" vertex="1" parent="1">
          <mxGeometry x="910" y="650" width="670" height="360" as="geometry" />
        </mxCell>
        <mxCell id="yG7qFysH4MExfcr9FbMT-20" value="" style="rounded=0;whiteSpace=wrap;html=1;" vertex="1" parent="1">
          <mxGeometry x="940" y="815" width="170" height="135" as="geometry" />
        </mxCell>
        <mxCell id="yG7qFysH4MExfcr9FbMT-21" value="Kubernetes Cluster 2" style="text;html=1;align=center;verticalAlign=middle;whiteSpace=wrap;rounded=0;" vertex="1" parent="1">
          <mxGeometry x="1420" y="660" width="150" height="30" as="geometry" />
        </mxCell>
        <mxCell id="yG7qFysH4MExfcr9FbMT-36" style="edgeStyle=orthogonalEdgeStyle;rounded=0;orthogonalLoop=1;jettySize=auto;html=1;exitX=0.5;exitY=1;exitDx=0;exitDy=0;entryX=0.5;entryY=0;entryDx=0;entryDy=0;" edge="1" parent="1" source="yG7qFysH4MExfcr9FbMT-22" target="yG7qFysH4MExfcr9FbMT-25">
          <mxGeometry relative="1" as="geometry" />
        </mxCell>
        <mxCell id="yG7qFysH4MExfcr9FbMT-22" value="Control Plane" style="rounded=0;whiteSpace=wrap;html=1;" vertex="1" parent="1">
          <mxGeometry x="1105" y="680" width="270" height="60" as="geometry" />
        </mxCell>
        <mxCell id="yG7qFysH4MExfcr9FbMT-23" style="edgeStyle=orthogonalEdgeStyle;rounded=0;orthogonalLoop=1;jettySize=auto;html=1;exitX=0.5;exitY=0;exitDx=0;exitDy=0;entryX=0;entryY=0.5;entryDx=0;entryDy=0;" edge="1" parent="1" source="yG7qFysH4MExfcr9FbMT-24" target="yG7qFysH4MExfcr9FbMT-22">
          <mxGeometry relative="1" as="geometry" />
        </mxCell>
        <mxCell id="yG7qFysH4MExfcr9FbMT-24" value="MCP Server" style="rounded=0;whiteSpace=wrap;html=1;" vertex="1" parent="1">
          <mxGeometry x="970" y="860" width="100" height="52.5" as="geometry" />
        </mxCell>
        <mxCell id="yG7qFysH4MExfcr9FbMT-25" value="" style="rounded=0;whiteSpace=wrap;html=1;" vertex="1" parent="1">
          <mxGeometry x="1150" y="815" width="180" height="135" as="geometry" />
        </mxCell>
        <mxCell id="yG7qFysH4MExfcr9FbMT-26" value="Pod&lt;span style=&quot;color: rgba(0, 0, 0, 0); font-family: monospace; font-size: 0px; text-align: start; text-wrap-mode: nowrap;&quot;&gt;%3CmxGraphModel%3E%3Croot%3E%3CmxCell%20id%3D%220%22%2F%3E%3CmxCell%20id%3D%221%22%20parent%3D%220%22%2F%3E%3CmxCell%20id%3D%222%22%20value%3D%22%22%20style%3D%22rounded%3D0%3BwhiteSpace%3Dwrap%3Bhtml%3D1%3B%22%20vertex%3D%221%22%20parent%3D%221%22%3E%3CmxGeometry%20x%3D%22510%22%20y%3D%22385%22%20width%3D%22180%22%20height%3D%22135%22%20as%3D%22geometry%22%2F%3E%3C%2FmxCell%3E%3C%2Froot%3E%3C%2FmxGraphModel%3E&lt;/span&gt;" style="text;html=1;align=center;verticalAlign=middle;whiteSpace=wrap;rounded=0;" vertex="1" parent="1">
          <mxGeometry x="1270" y="820" width="60" height="30" as="geometry" />
        </mxCell>
        <mxCell id="yG7qFysH4MExfcr9FbMT-27" value="Pod&lt;span style=&quot;color: rgba(0, 0, 0, 0); font-family: monospace; font-size: 0px; text-align: start; text-wrap-mode: nowrap;&quot;&gt;%3CmxGraphModel%3E%3Croot%3E%3CmxCell%20id%3D%220%22%2F%3E%3CmxCell%20id%3D%221%22%20parent%3D%220%22%2F%3E%3CmxCell%20id%3D%222%22%20value%3D%22%22%20style%3D%22rounded%3D0%3BwhiteSpace%3Dwrap%3Bhtml%3D1%3B%22%20vertex%3D%221%22%20parent%3D%221%22%3E%3CmxGeometry%20x%3D%22510%22%20y%3D%22385%22%20width%3D%22180%22%20height%3D%22135%22%20as%3D%22geometry%22%2F%3E%3C%2FmxCell%3E%3C%2Froot%3E%3C%2FmxGraphModel%3E&lt;/span&gt;" style="text;html=1;align=center;verticalAlign=middle;whiteSpace=wrap;rounded=0;" vertex="1" parent="1">
          <mxGeometry x="1060" y="820" width="60" height="30" as="geometry" />
        </mxCell>
        <mxCell id="yG7qFysH4MExfcr9FbMT-28" value="Any Other Application Container" style="rounded=0;whiteSpace=wrap;html=1;" vertex="1" parent="1">
          <mxGeometry x="1175" y="870" width="130" height="52.5" as="geometry" />
        </mxCell>
        <mxCell id="yG7qFysH4MExfcr9FbMT-29" value="" style="rounded=0;whiteSpace=wrap;html=1;" vertex="1" parent="1">
          <mxGeometry x="1350" y="815" width="180" height="135" as="geometry" />
        </mxCell>
        <mxCell id="yG7qFysH4MExfcr9FbMT-30" value="Pod&lt;span style=&quot;color: rgba(0, 0, 0, 0); font-family: monospace; font-size: 0px; text-align: start; text-wrap-mode: nowrap;&quot;&gt;%3CmxGraphModel%3E%3Croot%3E%3CmxCell%20id%3D%220%22%2F%3E%3CmxCell%20id%3D%221%22%20parent%3D%220%22%2F%3E%3CmxCell%20id%3D%222%22%20value%3D%22%22%20style%3D%22rounded%3D0%3BwhiteSpace%3Dwrap%3Bhtml%3D1%3B%22%20vertex%3D%221%22%20parent%3D%221%22%3E%3CmxGeometry%20x%3D%22510%22%20y%3D%22385%22%20width%3D%22180%22%20height%3D%22135%22%20as%3D%22geometry%22%2F%3E%3C%2FmxCell%3E%3C%2Froot%3E%3C%2FmxGraphModel%3E&lt;/span&gt;" style="text;html=1;align=center;verticalAlign=middle;whiteSpace=wrap;rounded=0;" vertex="1" parent="1">
          <mxGeometry x="1470" y="820" width="60" height="30" as="geometry" />
        </mxCell>
        <mxCell id="yG7qFysH4MExfcr9FbMT-31" value="Any Other Application Container" style="rounded=0;whiteSpace=wrap;html=1;" vertex="1" parent="1">
          <mxGeometry x="1375" y="870" width="130" height="52.5" as="geometry" />
        </mxCell>
        <mxCell id="yG7qFysH4MExfcr9FbMT-32" value="Interacts using Kubenetes API" style="text;html=1;align=center;verticalAlign=middle;whiteSpace=wrap;rounded=0;" vertex="1" parent="1">
          <mxGeometry x="920" y="740" width="90" height="30" as="geometry" />
        </mxCell>
        <mxCell id="yG7qFysH4MExfcr9FbMT-34" style="edgeStyle=orthogonalEdgeStyle;rounded=0;orthogonalLoop=1;jettySize=auto;html=1;exitX=1;exitY=0.5;exitDx=0;exitDy=0;entryX=0;entryY=0.5;entryDx=0;entryDy=0;" edge="1" parent="1" source="yG7qFysH4MExfcr9FbMT-42" target="yG7qFysH4MExfcr9FbMT-4">
          <mxGeometry relative="1" as="geometry">
            <mxPoint x="670" y="621.25" as="sourcePoint" />
          </mxGeometry>
        </mxCell>
        <mxCell id="yG7qFysH4MExfcr9FbMT-35" style="edgeStyle=orthogonalEdgeStyle;rounded=0;orthogonalLoop=1;jettySize=auto;html=1;exitX=1;exitY=0.5;exitDx=0;exitDy=0;entryX=0;entryY=0.5;entryDx=0;entryDy=0;" edge="1" parent="1" source="yG7qFysH4MExfcr9FbMT-42" target="yG7qFysH4MExfcr9FbMT-24">
          <mxGeometry relative="1" as="geometry">
            <mxPoint x="670" y="621.25" as="sourcePoint" />
          </mxGeometry>
        </mxCell>
        <mxCell id="yG7qFysH4MExfcr9FbMT-37" style="edgeStyle=orthogonalEdgeStyle;rounded=0;orthogonalLoop=1;jettySize=auto;html=1;exitX=0.5;exitY=1;exitDx=0;exitDy=0;entryX=0.564;entryY=0.039;entryDx=0;entryDy=0;entryPerimeter=0;" edge="1" parent="1" source="yG7qFysH4MExfcr9FbMT-22" target="yG7qFysH4MExfcr9FbMT-29">
          <mxGeometry relative="1" as="geometry" />
        </mxCell>
        <mxCell id="yG7qFysH4MExfcr9FbMT-41" value="Kuber AI Cluster" style="text;html=1;align=center;verticalAlign=middle;whiteSpace=wrap;rounded=0;" vertex="1" parent="1">
          <mxGeometry x="590" y="520" width="120" height="30" as="geometry" />
        </mxCell>
        <mxCell id="yG7qFysH4MExfcr9FbMT-42" value="MCP CLient" style="rounded=1;whiteSpace=wrap;html=1;" vertex="1" parent="1">
          <mxGeometry x="560" y="590" width="120" height="60" as="geometry" />
        </mxCell>
        <mxCell id="yG7qFysH4MExfcr9FbMT-43" value="Front End" style="rounded=1;whiteSpace=wrap;html=1;" vertex="1" parent="1">
          <mxGeometry x="370" y="590" width="120" height="60" as="geometry" />
        </mxCell>
        <mxCell id="yG7qFysH4MExfcr9FbMT-45" value="" style="endArrow=classic;startArrow=classic;html=1;rounded=0;exitX=1;exitY=0.5;exitDx=0;exitDy=0;entryX=0;entryY=0.5;entryDx=0;entryDy=0;" edge="1" parent="1" source="yG7qFysH4MExfcr9FbMT-43" target="yG7qFysH4MExfcr9FbMT-42">
          <mxGeometry width="50" height="50" relative="1" as="geometry">
            <mxPoint x="880" y="630" as="sourcePoint" />
            <mxPoint x="930" y="580" as="targetPoint" />
          </mxGeometry>
        </mxCell>
      </root>
    </mxGraphModel>
  </diagram>
</mxfile>
